# Blender v2.79 (sub 0) OBJ File: 'Waruimon_face.blend'
# www.blender.org
mtllib Waruimon_face.mtl
o Cube_Cube.001
v 0.286319 -0.321104 0.105425
v 0.286319 -0.045119 0.105425
v 0.286319 -0.321104 -0.105425
v 0.286319 -0.045119 -0.105425
v 1.105759 -0.321104 0.105425
v 1.105759 0.321104 0.105425
v 1.105759 -0.321104 -0.105425
v 1.105759 0.321104 -0.105425
v 1.651746 0.348070 0.049948
v 1.651746 0.652333 0.049948
v 1.651746 0.348070 -0.049948
v 1.651746 0.652333 -0.049948
v -0.286319 -0.321104 0.105425
v -0.286319 -0.045119 0.105425
v -0.286319 -0.321104 -0.105425
v -0.286319 -0.045119 -0.105425
v -1.105759 -0.321104 0.105425
v -1.105759 0.321104 0.105425
v -1.105759 -0.321104 -0.105425
v -1.105759 0.321104 -0.105425
v -1.651746 0.348070 0.049948
v -1.651746 0.652333 0.049948
v -1.651746 0.348070 -0.049948
v -1.651746 0.652333 -0.049948
vn -1.0000 0.0000 0.0000
vn -0.0000 0.0000 -1.0000
vn -0.5187 0.8550 0.0000
vn -0.0000 0.0000 1.0000
vn 0.0000 -1.0000 0.0000
vn -0.4080 0.9130 0.0000
vn 1.0000 0.0000 0.0000
vn 0.1011 0.0000 -0.9949
vn 0.1011 0.0000 0.9949
vn 0.7748 -0.6322 0.0000
vn 0.5187 0.8550 0.0000
vn 0.4080 0.9130 0.0000
vn -0.1011 0.0000 -0.9949
vn -0.1011 0.0000 0.9949
vn -0.7748 -0.6322 0.0000
usemtl Material.001
s off
f 1//1 2//1 4//1 3//1
f 3//2 4//2 8//2 7//2
f 8//3 6//3 10//3 12//3
f 5//4 6//4 2//4 1//4
f 3//5 7//5 5//5 1//5
f 8//6 4//6 2//6 6//6
f 11//7 12//7 10//7 9//7
f 7//8 8//8 12//8 11//8
f 6//9 5//9 9//9 10//9
f 5//10 7//10 11//10 9//10
f 13//7 15//7 16//7 14//7
f 15//2 19//2 20//2 16//2
f 20//11 24//11 22//11 18//11
f 17//4 13//4 14//4 18//4
f 15//5 13//5 17//5 19//5
f 20//12 18//12 14//12 16//12
f 23//1 21//1 22//1 24//1
f 19//13 23//13 24//13 20//13
f 18//14 22//14 21//14 17//14
f 17//15 21//15 23//15 19//15
